<?xml version="1.0" encoding="UTF-8"?>
<svg xmlns="http://www.w3.org/2000/svg" viewBox="0 0 1920 1280" width="1920" height="1280"
     font-family="'Amazon Ember','Segoe UI',Arial,sans-serif">
  <defs>
    <marker id="arr-545B64" viewBox="0 0 10 10" refX="9" refY="5" markerWidth="8" markerHeight="8" orient="auto-start-reverse"><path d="M 0 0 L 10 5 L 0 10 z" fill="#545B64"/></marker>
<marker id="arr-8C4FFF" viewBox="0 0 10 10" refX="9" refY="5" markerWidth="8" markerHeight="8" orient="auto-start-reverse"><path d="M 0 0 L 10 5 L 0 10 z" fill="#8C4FFF"/></marker>
<marker id="arr-DD344C" viewBox="0 0 10 10" refX="9" refY="5" markerWidth="8" markerHeight="8" orient="auto-start-reverse"><path d="M 0 0 L 10 5 L 0 10 z" fill="#DD344C"/></marker>
<marker id="arr-ED7100" viewBox="0 0 10 10" refX="9" refY="5" markerWidth="8" markerHeight="8" orient="auto-start-reverse"><path d="M 0 0 L 10 5 L 0 10 z" fill="#ED7100"/></marker>
    <symbol id="icon-cloudfront" viewBox="0 0 64 64"><g fill="none" fill-rule="evenodd"><path fill="#8c4fff" d="M0 0h64v64H0z"/><path fill="#fff" d="M41.5 43.5c-1.103 0-2-.897-2-2s.897-2 2-2 2 .897 2 2-.897 2-2 2m0-6c-2.206 0-4 1.794-4 4s1.794 4 4 4 4-1.794 4-4-1.794-4-4-4m-19-5c-1.103 0-2-.897-2-2s.897-2 2-2 2 .897 2 2-.897 2-2 2m0-6c-2.206 0-4 1.794-4 4s1.794 4 4 4 4-1.794 4-4-1.794-4-4-4m22.889 20.624a29 29 0 0 0-.704-1.533l-1.789.895c.274.549.524 1.113.76 1.679a19 19 0 0 1-2.628 1.575c.356-.875.666-1.765.946-2.728l-1.92-.558a25.2 25.2 0 0 1-1.87 4.679A19.2 19.2 0 0 1 32.5 52c-3.035 0-5.933-.686-8.629-2.024-1.368-3.361-2.033-6.442-2.033-9.417 0-1.292.225-2.363.484-3.603q.096-.455.192-.932l-1.963-.386q-.092.465-.186.907c-.271 1.293-.527 2.515-.527 4.014 0 2.515.436 5.085 1.316 7.795A19.46 19.46 0 0 1 13 32.5c0-.111.01-.227.012-.339a24 24 0 0 1 4.842-.59l-.05-1.999c-1.635.04-3.11.207-4.641.512.918-7.401 6.049-13.69 13.16-16.065 1.55.799 2.697 1.505 3.812 2.351l1.209-1.594a24 24 0 0 0-2.198-1.477A19.6 19.6 0 0 1 32.5 13c2.532 0 5.032.494 7.349 1.439a33 33 0 0 0-1.606.532l.68 1.881c1.393-.503 2.485-.812 3.648-1.031C48.399 19.341 52 25.667 52 32.5a19.36 19.36 0 0 1-6.611 14.624m-2.381-33.375A21.4 21.4 0 0 0 32.5 11c-2.108 0-4.176.301-6.143.895-8.634 2.569-14.789 10.335-15.312 19.301-.035.429-.045.866-.045 1.304a21.47 21.47 0 0 0 11.354 18.955A21.54 21.54 0 0 0 32.5 54a21.1 21.1 0 0 0 6.937-1.157 21 21 0 0 0 6.209-3.336C50.955 45.399 54 39.2 54 32.5a21.52 21.52 0 0 0-10.992-18.751m-4.624 23.662-1.381 1.447c-2.981-2.843-5.956-4.712-9.366-5.883l.65-1.892c3.692 1.268 6.901 3.279 10.097 6.328m.06-15.047c2.838 4.328 4.436 9.08 4.749 14.124l-1.996.124c-.292-4.693-1.78-9.117-4.425-13.152zm-11.993 4.433-1.678-1.089c1.543-2.376 2.866-3.95 4.563-5.43l1.314 1.508c-1.547 1.349-2.764 2.801-4.199 5.011M34.5 16.5c1.103 0 2 .897 2 2s-.897 2-2 2-2-.897-2-2 .897-2 2-2m0 6c2.206 0 4-1.794 4-4s-1.794-4-4-4-4 1.794-4 4 1.794 4 4 4"/></g></symbol>
    <symbol id="icon-route53" viewBox="0 0 64 64"><g fill="none" fill-rule="evenodd"><path fill="#8c4fff" d="M0 0h64v64H0z"/><path fill="#fff" d="M38.761 32.527q.862.796.862 2.137 0 1.46-1.049 2.33t-2.82.871a6.9 6.9 0 0 1-2.768-.595v-1.192q1.622.536 2.768.536 1.13 0 1.741-.506.611-.507.611-1.444 0-1.802-2.278-1.802-.714 0-1.414.074v-.983l3.126-3.41h-4.406v-1.221h6.059v1.177l-3.067 3.246a1 1 0 0 1 .149-.015h.149q1.474 0 2.337.797m-8.647-.26q.906.848.907 2.337 0 1.46-1.057 2.36-1.058.901-2.783.901-1.518 0-2.843-.595v-1.192q1.653.536 2.828.536 1.131 0 1.734-.513.603-.514.602-1.482.001-1.057-.565-1.534-.565-.476-1.846-.476-.922 0-2.307.149v-.983l.284-4.453H30.5v1.222h-4.182l-.195 3.023q.819-.15 1.474-.15 1.608 0 2.517.85m11.147 10.697c-3.745.672-7.028 2.182-9.261 3.431-2.232-1.25-5.515-2.76-9.26-3.431-1.032-.185-6.174-1.256-6.174-4.14 0-1.361.497-2.282 1.451-3.924 1.116-1.926 2.646-4.564 2.646-8.226 0-2.564-.659-5.023-1.96-7.32l.269-.331c1.955.95 3.987 1.43 6.053 1.43 2.546 0 4.889-.657 6.975-1.951 2.086 1.294 4.43 1.95 6.976 1.95 2.065 0 4.097-.48 6.053-1.43l.268.331c-1.301 2.298-1.96 4.757-1.96 7.32 0 3.663 1.53 6.3 2.647 8.227.954 1.642 1.451 2.563 1.451 3.925 0 2.883-5.143 3.954-6.174 4.139m4.076-16.29c0-2.415.682-4.73 2.025-6.882a1 1 0 0 0-.074-1.162c-.395-.485-.809-.994-1.218-1.5a1 1 0 0 0-1.261-.246c-1.883 1.04-3.846 1.568-5.833 1.568-2.4 0-4.494-.644-6.406-1.97a1 1 0 0 0-1.139 0c-1.912 1.326-4.007 1.97-6.406 1.97-1.988 0-3.951-.528-5.833-1.568a1 1 0 0 0-1.261.246c-.409.506-.823 1.015-1.219 1.5a1 1 0 0 0-.073 1.162c1.343 2.152 2.024 4.467 2.024 6.882 0 3.124-1.262 5.3-2.377 7.221-1.066 1.84-1.72 3.06-1.72 4.93 0 4.363 5.985 5.778 7.82 6.108 3.75.674 7.024 2.265 9.111 3.48a1 1 0 0 0 1.006 0c2.087-1.215 5.362-2.806 9.112-3.48 1.834-.33 7.82-1.745 7.82-6.108 0-1.87-.654-3.09-1.721-4.93-1.114-1.92-2.377-4.097-2.377-7.221m-3.269 20.785c-4.666.838-8.6 3.296-10.068 4.309-1.468-1.013-5.401-3.47-10.067-4.31-2.33-.418-9.933-2.28-9.933-8.633 0-2.655 1.004-4.387 2.068-6.22.998-1.72 2.03-3.498 2.03-5.931 0-3.667-2.027-6.302-3.157-7.487 1.154-1.405 3.695-4.506 5.088-6.29 2.122 1.935 4.571 2.988 6.996 2.988 2.701 0 4.942-1.065 6.975-3.336 2.033 2.27 4.275 3.336 6.976 3.336 2.425 0 4.874-1.053 6.996-2.988 1.393 1.784 3.934 4.885 5.088 6.29-1.13 1.185-3.157 3.82-3.157 7.487 0 2.433 1.032 4.212 2.03 5.932C50.996 34.438 52 36.17 52 38.825c0 6.354-7.602 8.215-9.932 8.634M51.662 31.6c-.944-1.627-1.759-3.033-1.759-4.927 0-4.002 3.121-6.603 3.15-6.627a1 1 0 0 0 .143-1.414c-.052-.062-5.147-6.24-6.311-7.835a1 1 0 0 0-1.538-.094c-1.917 2.05-4.18 3.18-6.371 3.18-2.416 0-4.322-1.083-6.182-3.513-.379-.495-1.209-.495-1.588 0-1.859 2.43-3.765 3.513-6.181 3.513-2.192 0-4.454-1.13-6.371-3.18a1 1 0 0 0-1.539.094c-1.164 1.596-6.258 7.773-6.31 7.835-.17.206-.25.47-.224.737.028.266.159.51.367.677.032.026 3.15 2.595 3.15 6.627 0 1.894-.816 3.3-1.76 4.927C11.242 33.49 10 35.631 10 38.825c0 5.336 4.328 9.3 11.579 10.604 5.316.954 9.768 4.33 9.813 4.365a1 1 0 0 0 1.218-.001c.044-.034 4.478-3.406 9.811-4.364C49.672 48.125 54 44.16 54 38.825c0-3.194-1.242-5.335-2.338-7.224"/></g></symbol>
    <symbol id="icon-ec2" viewBox="0 0 64 64"><g fill="none" fill-rule="evenodd"><path fill="#ed7100" d="M0 0h64v64H0z"/><path fill="#fff" d="M22 41h19V23H22zm21-18h3v2h-3v2h3v2h-3v2h3v2h-3v3h3v2h-3v2h3v2h-3.137c-.255.587-.84 1-1.519 1H41v3h-2v-3h-2v3h-2v-3h-2v3h-2v-3h-2v3h-2v-3h-3v3h-2v-3h-.344a1.66 1.66 0 0 1-1.519-1H18v-2h2v-2h-2v-2h2v-3h-2v-2h2v-2h-2v-2h2v-2h-2v-2h2v-.344c0-.913.743-1.656 1.656-1.656H22v-3h2v3h3v-3h2v3h2v-3h2v3h2v-3h2v3h2v-3h2v3h.344c.913 0 1.656.743 1.656 1.656zM32 52H12V32h4v-2h-4.157A1.845 1.845 0 0 0 10 31.843v20.314c0 1.016.826 1.843 1.843 1.843h20.314A1.845 1.845 0 0 0 34 52.157V48h-2zm22-40.157v20.314A1.845 1.845 0 0 1 52.157 34H48v-2h4V12H32v4h-2v-4.157c0-1.016.826-1.843 1.843-1.843h20.314c1.017 0 1.843.827 1.843 1.843"/></g></symbol>
    <symbol id="icon-rds" viewBox="0 0 64 64"><g fill="none" fill-rule="evenodd"><path fill="#c925d1" d="M0 0h64v64H0z"/><path fill="#fff" d="M54 11v8h-2v-5.586l-6.293 6.293-1.414-1.414L50.586 12h-5.461v-2H53a1 1 0 0 1 1 1m-42 7.875h-2V11a1 1 0 0 1 1-1h8v2h-5.586l6.293 6.293-1.414 1.414L12 13.414zm7.707 26.832L13.414 52h5.461v2H11a1 1 0 0 1-1-1v-8h2v5.586l6.293-6.293zM51.5 31.781c0-2.429-2.866-4.849-7.667-6.474l.641-1.894c5.736 1.941 9.026 4.991 9.026 8.368s-3.29 6.427-9.026 8.369l-.641-1.895c4.801-1.624 7.667-4.045 7.667-6.474m-38.957 0c0 2.324 2.681 4.679 7.172 6.3l-.68 1.88c-5.396-1.947-8.492-4.928-8.492-8.18s3.096-6.233 8.492-8.18l.68 1.881c-4.491 1.621-7.172 3.976-7.172 6.299M52 45.125h2V53a1 1 0 0 1-1 1h-8v-2h5.586l-6.293-6.293 1.414-1.414L52 50.586zM32.022 31.402c-5.023 0-7.896-1.343-8.022-1.919v-3.226c2.159 1.009 5.609 1.336 8 1.336s5.841-.327 8-1.336v3.226c-.106.574-2.949 1.919-7.978 1.919m0 5.728c-5.023 0-7.896-1.344-8.022-1.92v-3.254c1.953.981 5.055 1.446 8.022 1.446 2.951 0 6.033-.464 7.978-1.442v3.25c-.106.575-2.948 1.92-7.978 1.92M32 42.268c-5.05 0-7.896-1.351-8-1.922v-2.663c1.953.982 5.055 1.447 8.022 1.447 2.951 0 6.033-.464 7.978-1.443v2.655c-.104.575-2.95 1.926-8 1.926m0-20.075c4.971 0 7.642 1.177 7.982 1.701-.34.523-3.011 1.699-7.982 1.699-5.091 0-7.767-1.232-8-1.644v-.019c.233-.504 2.909-1.737 8-1.737m0-2c-3.714 0-10 .78-10 3.701v16.452c0 2.695 5.184 3.922 10 3.922s10-1.227 10-3.922V23.894c0-2.921-6.286-3.701-10-3.701"/></g></symbol>
    <symbol id="icon-waf" viewBox="0 0 64 64"><g fill="none" fill-rule="evenodd"><path fill="#dd344c" d="M0 0h64v64H0z"/><path fill="#fff" d="M26.929 40.397a18.6 18.6 0 0 0 3.04 1.692c-.477-2.376-.794-6.487 1.343-10.418 1.593-2.928 1.856-6.254.688-8.681a5.9 5.9 0 0 0-1.922-2.292c.762 1.759 1.19 4.299.038 7.572a1 1 0 0 1-1.825.142c-.331-.616-1.242-2.004-2.283-2.833.408 1.876.667 4.683-.673 6.788a8 8 0 0 0-.201.334c-1.47 2.589-.682 5.97 1.795 7.696m7.542-16.242c.565 2.649.092 5.725-1.401 8.471-2.165 3.981-1.363 8.319-.91 10.025 1.957-.329 6.903-1.557 7.959-5.649 1.014-3.926.4-6.199-.31-7.424-.708 2.544-2.007 3.615-2.074 3.669a1.002 1.002 0 0 1-1.614-.938c.606-3.768-.36-6.39-1.65-8.154M23.65 31.29c1.609-2.527-.074-6.965-.091-7.01a1 1 0 0 1 .932-1.361c1.75 0 3.248 1.355 4.25 2.593.529-3.989-1.877-6.084-1.997-6.184a1.004 1.004 0 0 1-.26-1.191.99.99 0 0 1 1.077-.561c1.474.261 2.773.822 3.85 1.633.955.427 5.726 2.839 6.714 8.7q.04-.264.072-.55a1 1 0 0 1 1.474-.774c.187.103 4.533 2.595 2.384 10.917-1.675 6.488-10.18 7.227-10.541 7.255l-.001-.01c-.022.002-.041.013-.063.013a1 1 0 0 1-.335-.059c-2.054-.734-3.847-1.63-5.33-2.663-3.314-2.31-4.364-6.847-2.39-10.327a10 10 0 0 1 .255-.421m-8.16 12.66 1.62-1.173A18.2 18.2 0 0 1 13.677 33H16v-2h-2.321a18.16 18.16 0 0 1 3.432-9.719l-1.621-1.173A20.16 20.16 0 0 0 11.679 31h-1.68v2h1.677c.186 3.962 1.484 7.731 3.814 10.95m27.257 2.968A18.2 18.2 0 0 1 33 50.351V48h-2v2.351a18.2 18.2 0 0 1-9.75-3.433l-1.172 1.621A20.2 20.2 0 0 0 31 52.351V54h2v-1.649c3.95-.191 7.709-1.489 10.919-3.812zM21.25 17.14A18.2 18.2 0 0 1 31 13.708V16h2v-2.292a18.2 18.2 0 0 1 9.747 3.432l1.172-1.62a20.15 20.15 0 0 0-10.92-3.812V10h-2v1.708a20.16 20.16 0 0 0-10.921 3.812zM52.32 31a20.2 20.2 0 0 0-3.811-10.892l-1.621 1.173A18.2 18.2 0 0 1 50.32 31H48v2h2.323a18.2 18.2 0 0 1-3.435 9.777l1.62 1.173c2.33-3.219 3.629-6.988 3.815-10.95H54v-2zm-7.293-10.584 6.159-6.16-1.414-1.414-6.16 6.16zM18.972 43.642l-6.16 6.16 1.414 1.414 6.16-6.16zm3.442-22.641L11.586 10.173l-1.414 1.414L21 22.415zM43 41.586l10.826 10.827-1.414 1.414L41.586 43z"/></g></symbol>
    <symbol id="icon-tgw" viewBox="0 0 64 64"><g fill="none" fill-rule="evenodd"><path fill="#8c4fff" d="M0 0h64v64H0z"/><path fill="#fff" d="M34.885 50.757A3.98 3.98 0 0 0 36 48c0-1.858-1.279-3.41-3-3.858V38.92A7 7 0 0 0 38.92 33h5.223c.446 1.72 1.999 3 3.857 3a3.98 3.98 0 0 0 2.757-1.115c-1.252 8.165-7.706 14.62-15.872 15.872M13.243 34.885A3.98 3.98 0 0 0 16 36c1.859 0 3.411-1.28 3.858-3h5.222A7.005 7.005 0 0 0 31 38.92v5.222c-1.72.448-3 2-3 3.858 0 1.07.428 2.039 1.115 2.757-8.166-1.252-14.62-7.707-15.872-15.872M18 32c0 1.103-.897 2-2 2s-2-.897-2-2 .898-2 2-2c1.103 0 2 .897 2 2m11.115-18.757A3.98 3.98 0 0 0 28 16c0 1.859 1.28 3.411 3 3.858v5.222A7.01 7.01 0 0 0 25.08 31h-5.222c-.447-1.72-1.999-3-3.858-3-1.07 0-2.039.428-2.757 1.115 1.252-8.165 7.706-14.619 15.872-15.872M32 14c1.103 0 2 .897 2 2s-.897 2-2 2-2-.897-2-2 .898-2 2-2m0 23c-2.757 0-5-2.243-5-5s2.243-5 5-5 5 2.243 5 5-2.243 5-5 5m0 13c-1.102 0-2-.897-2-2s.898-2 2-2c1.103 0 2 .897 2 2s-.897 2-2 2m18-18c0 1.103-.897 2-2 2s-2-.897-2-2 .898-2 2-2c1.103 0 2 .897 2 2m.757-2.885A3.98 3.98 0 0 0 48 28c-1.858 0-3.411 1.28-3.857 3H38.92A7 7 0 0 0 33 25.08v-5.222c1.721-.447 3-1.999 3-3.858a3.98 3.98 0 0 0-1.115-2.757c8.166 1.253 14.62 7.707 15.872 15.872M32 11c-11.579 0-21 9.421-21 21s9.421 21 21 21 21-9.42 21-21-9.421-21-21-21"/></g></symbol>
    <symbol id="icon-secrets" viewBox="0 0 64 64"><g fill="none" fill-rule="evenodd"><path fill="#dd344c" d="M0 0h64v64H0z"/><path fill="#fff" d="M31.24 34.64a.76.76 0 0 0 1.52 0 .76.76 0 0 0-1.52 0m-2 0A2.763 2.763 0 0 1 32 31.88a2.764 2.764 0 0 1 2.76 2.76A2.76 2.76 0 0 1 33 37.205V40h-2v-2.795a2.76 2.76 0 0 1-1.76-2.565M39 31H25v10h14v-2h-2v-2h2v-2h-2v-2h2zm-12-2h9.999L37 25c0-.865-.576-1.859-1.543-2.659-1.014-.84-2.305-1.341-3.454-1.341h-.002c-2.383 0-5 2.093-5.001 4zm12-4-.001 4H40a1 1 0 0 1 1 1v12a1 1 0 0 1-1 1H24a1 1 0 0 1-1-1V30a1 1 0 0 1 1-1h1v-4c.001-3.029 3.469-6 7.001-6h.002c1.625 0 3.348.657 4.729 1.801C38.174 21.994 39.001 23.525 39 25M15.489 43.95l1.621-1.173A18.2 18.2 0 0 1 13.676 33H16v-2h-2.322a18.2 18.2 0 0 1 3.432-9.719l-1.621-1.173A20.18 20.18 0 0 0 11.678 31H10v2h1.676c.185 3.962 1.484 7.731 3.813 10.95m27.258 2.968A18.2 18.2 0 0 1 33 50.35V48h-2v2.35a18.2 18.2 0 0 1-9.75-3.432l-1.172 1.62A20.17 20.17 0 0 0 31 52.35V54h2v-1.65c3.951-.19 7.709-1.488 10.919-3.812zM21.25 17.14A18.2 18.2 0 0 1 31 13.707V16h2v-2.293a18.2 18.2 0 0 1 9.747 3.433l1.172-1.62A20.16 20.16 0 0 0 33 11.707V10h-2v1.707a20.17 20.17 0 0 0-10.922 3.813zM52.319 31a20.17 20.17 0 0 0-3.81-10.892l-1.622 1.173A18.16 18.16 0 0 1 50.319 31H48v2h2.322a18.2 18.2 0 0 1-3.435 9.777l1.622 1.173c2.329-3.219 3.627-6.988 3.813-10.95H54v-2zm-7.293-10.584 6.159-6.16-1.414-1.414-6.159 6.16zM18.971 43.642l-6.16 6.16 1.414 1.414 6.161-6.16zm4.275-21.809-11.66-11.66-1.414 1.414 11.66 11.66zM43.303 41.89l10.523 10.523-1.414 1.414-10.524-10.523z"/></g></symbol>
    <symbol id="icon-cloudwatch" viewBox="0 0 64 64"><g fill="none" fill-rule="evenodd"><path fill="#e7157b" d="M0 0h64v64H0z"/><path fill="#fff" d="M42.184 39.381a4.095 4.095 0 0 0-8.189 0 4.095 4.095 0 0 0 8.189 0m2 0c0 3.353-2.734 6.081-6.095 6.081s-6.094-2.728-6.094-6.08c0-3.354 2.734-6.082 6.094-6.082s6.095 2.728 6.095 6.081m6.559 10.235-4.897-4.4a10 10 0 0 1-1.061 1.19l4.886 4.397a.806.806 0 0 0 1.131-.059.8.8 0 0 0-.059-1.128m-12.654-2.524c4.262 0 7.729-3.46 7.729-7.71 0-4.252-3.467-7.711-7.729-7.711-4.26 0-7.727 3.459-7.727 7.71s3.467 7.71 7.727 7.71m13.992 1.042a2.796 2.796 0 0 1 .207 3.946c-.553.61-1.317.92-2.083.92a2.8 2.8 0 0 1-1.872-.713l-5.161-4.646a9.67 9.67 0 0 1-5.083 1.446c-5.364 0-9.727-4.354-9.727-9.706s4.363-9.706 9.727-9.706c5.365 0 9.729 4.354 9.729 9.706a9.6 9.6 0 0 1-.921 4.095zM17.697 23.538c0 .401.023.8.07 1.185a.997.997 0 0 1-.806 1.101C15.084 26.308 12 27.772 12 32.157c0 3.323 1.836 5.157 3.377 6.11.672.423 1.263.638 1.761.643h8.989v1.996h-9c-.884-.01-1.827-.329-2.81-.947C12.708 38.964 10 36.62 10 32.157c0-5.27 3.526-7.293 5.71-8.04a14 14 0 0 1-.013-.579c0-4.378 2.976-8.916 6.924-10.56 4.611-1.927 9.498-.971 13.066 2.556 1.047 1.033 1.917 2.274 2.598 3.702a5.3 5.3 0 0 1 3.174-1.061c2.415 0 5.128 1.793 5.663 5.715C50.58 24.722 54 27.278 54 32.217c0 2.89-1.136 5.24-3.287 6.792l-1.172-1.616C51.173 36.214 52 34.473 52 32.217c0-4.978-4.189-6.217-5.99-6.519a.996.996 0 0 1-.824-1.127c-.255-3.04-2.045-4.401-3.727-4.401-1.057 0-2.05.516-2.725 1.416a.999.999 0 0 1-1.741-.26c-.634-1.752-1.547-3.223-2.712-4.375-1.43-1.411-5.348-4.444-10.89-2.132-3.193 1.33-5.694 5.16-5.694 8.72"/></g></symbol>
    <symbol id="icon-lambda" viewBox="0 0 64 64"><g fill="none" fill-rule="evenodd"><path fill="#ed7100" d="M0 0h64v64H0z"/><path fill="#fff" d="M22.68 52h-9.106l10.264-21.59 4.562 9.451zm2.047-24.333a.99.99 0 0 0-.896-.564h-.003a.99.99 0 0 0-.896.569L11.097 52.569c-.147.31-.126.674.057.965.181.29.5.466.842.466H23.31a1 1 0 0 0 .9-.572l6.194-13.144a1 1 0 0 0-.005-.864zM51.008 52h-9.022L26.955 19.578a1 1 0 0 0-.903-.578h-5.924l.007-7h11.68l14.96 32.42c.163.354.516.58.904.58h3.33zm.996-9h-3.69l-14.96-32.42a1 1 0 0 0-.903-.58H19.14a1 1 0 0 0-.996.999l-.008 9A.993.993 0 0 0 19.131 21h6.286l15.03 32.422a1 1 0 0 0 .903.578h10.654c.55 0 .996-.448.996-1v-9c0-.552-.445-1-.996-1"/></g></symbol>
    <symbol id="icon-acm" viewBox="0 0 64 64"><g fill="none" fill-rule="evenodd"><path fill="#dd344c" d="M0 0h64v64H0z"/><path fill="#fff" d="M28.722 30.981a1 1 0 0 1 .261.877l-.589 3.14 3.092-1.855a.99.99 0 0 1 1.029 0l3.093 1.855-.59-3.146a1 1 0 0 1 .261-.876l2.661-2.779-3.585-.532a1 1 0 0 1-.736-.518l-1.627-3.043-1.667 3.054c-.15.274-.419.463-.729.51l-3.539.536zm-2.704 5.834.904-4.82-3.643-3.798a.999.999 0 0 1 .572-1.681l4.955-.752 2.316-4.243c.176-.321.513-.521.878-.521h.004c.367.002.704.205.878.528l2.264 4.232 5.001.743a1 1 0 0 1 .575 1.681l-3.645 3.804.906 4.828a.999.999 0 0 1-1.497 1.041L32 35.166l-4.485 2.691a.99.99 0 0 1-1.086-.036 1 1 0 0 1-.411-1.006M12 17.017h39.997V13H12zM54 52a.997.997 0 0 1-1 1h-5v-2h4l-.002-31.983H12V51h29v2H11a1 1 0 0 1-1-1V12a1 1 0 0 1 1-1h41.997a1 1 0 0 1 1 1zm-35-5h5v-2h-5zm8 0h11v-2H27zm-8-4.003h5v-2h-5zM27 43h18v-2H27z"/></g></symbol>
    <symbol id="icon-s3" viewBox="0 0 64 64"><g fill="none" fill-rule="evenodd"><path fill="#7aa116" d="M0 0h64v64H0z"/><path fill="#fff" d="m47.759 33.948.234-1.817c2.173 1.254 2.849 1.99 3.044 2.293-.324.061-1.205.085-3.278-.476M30.499 21c-10.374 0-17.117-2.512-17.5-4.304v-.185c.35-1.119 6.14-4.51 17.5-4.51 11.34 0 17.133 3.38 17.5 4.504v.111C47.725 18.446 40.962 21 30.5 21m15.319 12.362c-4.765-1.565-10.906-4.383-13.224-5.474a2.09 2.09 0 0 0-2.082-1.982A2.097 2.097 0 0 0 28.418 28c0 1.154.94 2.094 2.094 2.094.457 0 .877-.152 1.22-.4 2.4 1.128 8.887 4.104 13.826 5.686l-1.721 13.344C43.583 50.352 38.919 52 30.497 52c-8.425 0-13.092-1.648-13.342-3.249l-3.72-28.937C16.945 21.915 23.749 23 30.5 23c6.75 0 13.554-1.085 17.065-3.185zM50 16.5c0-3.069-8.34-6.5-19.5-6.5S11 13.431 11 16.5v.543l4.174 31.99C15.874 53.516 26.123 54 30.497 54c4.372 0 14.616-.484 15.32-4.993l1.684-13.06c1.277.332 2.31.51 3.115.508.99 0 1.657-.252 2.08-.758.35-.416.489-.94.389-1.476-.228-1.22-1.682-2.509-4.715-4.177l-.1-.055L50 17.044z"/></g></symbol>
    <symbol id="icon-alb" viewBox="0 0 48 48"><path fill="#8c4fff" fill-rule="evenodd" d="M33.69 34.375h2.345V32H33.69zm-6.939 0h2.375V32h-2.375zm-7.875 0h2.375V32h-2.375zm-6.91 0h2.285V32h-2.285zm6.035-17.5h12V11h-12zM37.035 30h-1.534v-3.375a1 1 0 0 0-1-1h-2.5V22.25a1 1 0 0 0-1-1h-6v-2.375h6a1 1 0 0 0 1-1V10a1 1 0 0 0-1-1h-14a1 1 0 0 0-1 1v7.875a1 1 0 0 0 1 1h6v2.375h-6a1 1 0 0 0-1 1v3.375h-2.5a1 1 0 0 0-1 1V30h-1.536a1 1 0 0 0-1 1v4.375a1 1 0 0 0 1 1h4.286a1 1 0 0 0 1-1V31a1 1 0 0 0-1-1h-.75v-2.375h4.125V30h-.75a1 1 0 0 0-1 1v4.375a1 1 0 0 0 1 1h4.375a1 1 0 0 0 1-1V31a1 1 0 0 0-1-1h-1.625v-3.375a1 1 0 0 0-1-1h-1.625V23.25h12v2.375h-1.625a1 1 0 0 0-1 1V30h-1.625a1 1 0 0 0-1 1v4.375a1 1 0 0 0 1 1h4.375a1 1 0 0 0 1-1V31a1 1 0 0 0-1-1h-.75v-2.375h4.125V30h-.811a1 1 0 0 0-1 1v4.375a1 1 0 0 0 1 1h4.345a1 1 0 0 0 1-1V31a1 1 0 0 0-1-1M24.001 44C12.972 44 4 35.028 4 24S12.972 4 24.001 4c11.028 0 20 8.972 20 20s-8.972 20-20 20m0-42C11.869 2 2 11.869 2 24s9.869 22 22.001 22c12.13 0 22-9.869 22-22s-9.87-22-22-22"/></symbol>
    <symbol id="icon-nat" viewBox="0 0 48 48"><path fill="#8c4fff" fill-rule="evenodd" d="M13.626 35.92v-2.837l1.774 1.419zm-.375-5.7a1.001 1.001 0 0 0-1.625.781v7a1.001 1.001 0 0 0 1.625.782l4.374-3.5a1 1 0 0 0 0-1.562zm24-3.383v-3.922l1.962 1.96zm4.083-2.668-4.376-4.375a1 1 0 0 0-1.706.707v3.375h-7.627v-9.5a1 1 0 0 0-1-1h-7.693v2h6.694v8.5H18.75v2h6.875v8.5h-6.693v2h7.694a1 1 0 0 0 1-1v-9.5h7.625v3.376a1 1 0 0 0 1.708.707l4.374-4.376a1 1 0 0 0 0-1.414m-27.708 2.127v-2.84l1.774 1.42zm-.375-5.701a1 1 0 0 0-1.625.78v7.002a1.001 1.001 0 0 0 1.625.78l4.374-3.5a1 1 0 0 0 0-1.562zm.375-4.8v-2.838l1.774 1.419zm-.375-5.7a1.001 1.001 0 0 0-1.625.781v7a1.001 1.001 0 0 0 1.625.78l4.374-3.5a1 1 0 0 0 0-1.561zM24 44.003C12.971 44.003 4 35.03 4 24S12.973 4 24 4c11.03 0 20.002 8.973 20.002 20 0 11.03-8.973 20.003-20.002 20.003M24 2C11.868 2 2 11.869 2 24c0 12.133 9.869 22.003 22 22.003 12.133 0 22.002-9.87 22.002-22.002S36.133 2 24 2"/></symbol>
    <symbol id="icon-igw" viewBox="0 0 48 48"><path fill="#8c4fff" fill-rule="evenodd" d="M33.431 35.178h-1.498V17.502a1 1 0 0 0-.589-.911l-.092-.042c-2.009-.907-4.088-1.846-7.076-1.846-3.123 0-5.415 1.009-7.68 2.134a1 1 0 0 0-.556.896v17.445h-1.463V16.312c2.434-1.98 5.943-3.107 9.71-3.107 3.5 0 6.838.997 9.244 2.748zm-9.245-23.973c-4.425 0-8.569 1.419-11.37 3.895a1 1 0 0 0-.339.749v20.329a1 1 0 0 0 1 1h3.463a1 1 0 0 0 1-1V18.356c1.92-.927 3.78-1.653 6.236-1.653 2.335 0 4.033.675 5.757 1.446v18.029a1 1 0 0 0 1 1h3.498a1 1 0 0 0 1-1v-20.72c0-.304-.139-.592-.378-.783-2.774-2.205-6.735-3.47-10.867-3.47m-.232 32.704C12.952 43.909 4 34.957 4 23.954S12.952 4 23.954 4C34.957 4 43.91 12.95 43.91 23.954c0 11.003-8.952 19.955-19.955 19.955m0-41.91C11.848 2 2 11.85 2 23.955c0 12.107 9.85 21.955 21.955 21.955 12.106 0 21.955-9.848 21.955-21.955C45.91 11.849 36.06 2 23.954 2"/></symbol>
    <symbol id="icon-sns" viewBox="0 0 64 64"><g fill="none" fill-rule="evenodd"><path fill="#e7157b" d="M0 0h64v64H0z"/><path fill="#fff" d="M14 31a1.001 1.001 0 0 1 0 2 1.001 1.001 0 0 1 0-2m19.396 20c-8.888 0-16.574-6.919-18.244-16.232A3 3 0 0 0 16.815 33H22v-2h-5.185a3 3 0 0 0-1.66-1.768C16.776 20.49 24.451 14 33.396 14c4.191 0 7.192.844 10.033 2.821l1.142-1.642C41.411 12.98 37.965 12 33.396 12c-10.002 0-18.57 7.322-20.255 17.14A2.99 2.99 0 0 0 11 32c0 1.353.906 2.486 2.139 2.859C14.88 45.248 23.456 53 33.396 53c4.232 0 8.333-1.409 12.189-4.189l-1.17-1.622C40.907 49.718 37.199 51 33.396 51m-8.334-21.541c1.395.378 3.029.541 4.372.541 1.282 0 2.826-.145 4.184-.474l-3.513 7.027A1 1 0 0 0 30 37v3.501a26 26 0 0 0-.399.331c-.394.33-1.169.981-1.601 1.142V37q0-.192-.071-.372zM29.434 26c2.599 0 4.581.566 5.335 1-.754.434-2.736 1-5.335 1-2.695 0-4.533-.601-5.216-1 .683-.399 2.521-1 5.216-1M27 44h1q.065 0 .128-.008c.966-.125 1.918-.924 2.758-1.628.259-.217.486-.412.66-.526.283-.185.454-.5.454-.838v-3.764l4.592-9.183c.258-.308.408-.657.408-1.053 0-2.201-4.525-3-7.566-3-2.989 0-7.434.799-7.434 3 0 .317.101.601.268.862L26 37.192V43a1 1 0 0 0 1 1m22-1a1.001 1.001 0 0 1 0 2 1.001 1.001 0 0 1 0-2m0-24a1.001 1.001 0 0 1 0 2 1.001 1.001 0 0 1 0-2m2 12a1.001 1.001 0 0 1 0 2 1.001 1.001 0 0 1 0-2m-7 2h4.185A2.99 2.99 0 0 0 51 35c1.654 0 3-1.346 3-3s-1.346-3-3-3a2.99 2.99 0 0 0-2.815 2H44V21h2.185A2.99 2.99 0 0 0 49 23c1.654 0 3-1.346 3-3s-1.346-3-3-3a2.99 2.99 0 0 0-2.815 2H43a1 1 0 0 0-1 1v11h-5v2h5v11a1 1 0 0 0 1 1h3.185A2.99 2.99 0 0 0 49 47c1.654 0 3-1.346 3-3s-1.346-3-3-3a2.99 2.99 0 0 0-2.815 2H44z"/></g></symbol>
    <filter id="shadow" x="-5%" y="-5%" width="110%" height="110%">
      <feDropShadow dx="1" dy="1" stdDeviation="2" flood-opacity="0.1"/>
    </filter>
  </defs>
  <rect x="0" y="0" width="1920" height="1280" rx="0" fill="#F5F5F5" stroke="none" stroke-width="0"/>
  <rect x="10" y="10" width="1900" height="1260" rx="12" fill="#F5F5F5" stroke="#232F3E" stroke-width="2.5"/>
  <rect x="20" y="18" width="80.8" height="22" rx="3" fill="#232F3E"/><text x="28" y="33" font-family="'Amazon Ember','Segoe UI',Arial,sans-serif" font-size="12" font-weight="700" fill="#FFFFFF">AWS Cloud</text>
  <g transform="translate(740, 55)">
  <circle cx="20" cy="10" r="10" fill="#232F3E"/>
  <path d="M5 38 Q5 22 20 22 Q35 22 35 38" fill="#232F3E"/>
  <text x="20" y="54" text-anchor="middle" font-family="'Amazon Ember','Segoe UI',Arial,sans-serif" font-size="11" font-weight="600" fill="#232F3E">Users</text>
  </g>
  <use href="#icon-route53" x="939" y="55" width="42" height="42"/><text x="960" y="111" text-anchor="middle" font-family="'Amazon Ember','Segoe UI',Arial,sans-serif" font-size="11" font-weight="600" fill="#232F3E">Amazon Route 53</text><text x="960" y="123" text-anchor="middle" font-family="'Amazon Ember','Segoe UI',Arial,sans-serif" font-size="9" fill="#545B64">keepuneat.click</text>
  <line x1="780" y1="75" x2="934" y2="75" stroke="#545B64" stroke-width="2" marker-end="url(#arr-545B64)"/>
  <circle cx="815" cy="65" r="14" fill="#FF9900" stroke="#232F3E" stroke-width="1.5"/><text x="815" y="70" text-anchor="middle" font-family="'Amazon Ember','Segoe UI',Arial,sans-serif" font-size="13" font-weight="700" fill="#FFFFFF">1</text>
  <use href="#icon-cloudfront" x="880" y="135" width="42" height="42"/><text x="901" y="191" text-anchor="middle" font-family="'Amazon Ember','Segoe UI',Arial,sans-serif" font-size="11" font-weight="600" fill="#232F3E">Amazon CloudFront</text><text x="901" y="203" text-anchor="middle" font-family="'Amazon Ember','Segoe UI',Arial,sans-serif" font-size="9" fill="#545B64">CDN + Origin Group</text>
  <use href="#icon-waf" x="1000" y="135" width="42" height="42"/><text x="1021" y="191" text-anchor="middle" font-family="'Amazon Ember','Segoe UI',Arial,sans-serif" font-size="11" font-weight="600" fill="#232F3E">AWS WAF</text><text x="1021" y="203" text-anchor="middle" font-family="'Amazon Ember','Segoe UI',Arial,sans-serif" font-size="9" fill="#545B64">Edge Protection</text>
  <line x1="960" y1="99" x2="920" y2="133" stroke="#545B64" stroke-width="2" marker-end="url(#arr-545B64)"/>
  <circle cx="945" cy="113" r="14" fill="#FF9900" stroke="#232F3E" stroke-width="1.5"/><text x="945" y="118" text-anchor="middle" font-family="'Amazon Ember','Segoe UI',Arial,sans-serif" font-size="13" font-weight="700" fill="#FFFFFF">2</text>
  <use href="#icon-acm" x="780" y="140" width="32" height="32"/><text x="796" y="186" text-anchor="middle" font-family="'Amazon Ember','Segoe UI',Arial,sans-serif" font-size="11" font-weight="600" fill="#232F3E">ACM</text><text x="796" y="198" text-anchor="middle" font-family="'Amazon Ember','Segoe UI',Arial,sans-serif" font-size="9" fill="#545B64">TLS Certificate</text>
  <rect x="30" y="210" width="870" height="1010" rx="10" fill="#E6F7F7" stroke="#00A4A6" stroke-width="2.5"/>
  <rect x="38" y="216" width="187.6" height="23" rx="3" fill="#00A4A6"/><text x="46" y="232" font-family="'Amazon Ember','Segoe UI',Arial,sans-serif" font-size="13" font-weight="700" fill="#FFFFFF">Tokyo (ap-northeast-1)</text>
  <rect x="46" y="248" width="838" height="910" rx="8" fill="#F3ECFF" stroke="#8C4FFF" stroke-width="2"/>
  <rect x="52" y="253" width="128.2" height="21" rx="3" fill="#8C4FFF"/><text x="60" y="267" font-family="'Amazon Ember','Segoe UI',Arial,sans-serif" font-size="11" font-weight="700" fill="#FFFFFF">VPC: 10.75.0.0/16</text>
  <rect x="58" y="280" width="814" height="240" rx="6" fill="#F2F8E1" stroke="#7AA116" stroke-width="1.5"/>
  <rect x="64" y="285" width="320" height="18" rx="3" fill="#7AA116" opacity="0.15"/><text x="70" y="298" font-family="'Amazon Ember','Segoe UI',Arial,sans-serif" font-size="10" font-weight="600" fill="#7AA116">Public Subnets (10.75.1.0/24, 10.75.11.0/24)</text>
  <use href="#icon-igw" x="78" y="315" width="42" height="42"/><text x="99" y="371" text-anchor="middle" font-family="'Amazon Ember','Segoe UI',Arial,sans-serif" font-size="11" font-weight="600" fill="#232F3E">Internet</text><text x="99" y="383" text-anchor="middle" font-family="'Amazon Ember','Segoe UI',Arial,sans-serif" font-size="9" fill="#545B64">Gateway</text>
  <use href="#icon-nat" x="178" y="315" width="42" height="42"/><text x="199" y="371" text-anchor="middle" font-family="'Amazon Ember','Segoe UI',Arial,sans-serif" font-size="11" font-weight="600" fill="#232F3E">NAT</text><text x="199" y="383" text-anchor="middle" font-family="'Amazon Ember','Segoe UI',Arial,sans-serif" font-size="9" fill="#545B64">Gateway</text>
  <use href="#icon-alb" x="318" y="315" width="42" height="42"/><text x="339" y="371" text-anchor="middle" font-family="'Amazon Ember','Segoe UI',Arial,sans-serif" font-size="11" font-weight="600" fill="#232F3E">ALB</text><text x="339" y="383" text-anchor="middle" font-family="'Amazon Ember','Segoe UI',Arial,sans-serif" font-size="9" fill="#545B64">chewbacca_alb01</text>
  <use href="#icon-waf" x="448" y="315" width="42" height="42"/><text x="469" y="371" text-anchor="middle" font-family="'Amazon Ember','Segoe UI',Arial,sans-serif" font-size="11" font-weight="600" fill="#232F3E">WAF</text><text x="469" y="383" text-anchor="middle" font-family="'Amazon Ember','Segoe UI',Arial,sans-serif" font-size="9" fill="#545B64">Regional</text>
  <rect x="278" y="405" width="260" height="55" rx="6" fill="#FFFFFF" stroke="#7AA116" stroke-width="1" stroke-dasharray="4 2"/>
  <text x="408" y="421" text-anchor="middle" font-family="'Amazon Ember','Segoe UI',Arial,sans-serif" font-size="10" font-weight="600" fill="#232F3E">ALB Listener Rules</text>
  <text x="408" y="435" text-anchor="middle" font-family="'Amazon Ember','Segoe UI',Arial,sans-serif" font-size="9" font-weight="400" fill="#545B64">X-Chewbacca-Growl header check</text>
  <text x="408" y="447" text-anchor="middle" font-family="'Amazon Ember','Segoe UI',Arial,sans-serif" font-size="9" font-weight="400" fill="#545B64">HTTPS (443) + HTTP→HTTPS redirect</text>
  <rect x="598" y="315" width="130" height="70" rx="6" fill="#FFFFFF" stroke="#7AA116" stroke-width="1"/>
  <text x="663" y="331" text-anchor="middle" font-family="'Amazon Ember','Segoe UI',Arial,sans-serif" font-size="10" font-weight="600" fill="#232F3E">Listeners</text>
  <text x="663" y="347" text-anchor="middle" font-family="'Amazon Ember','Segoe UI',Arial,sans-serif" font-size="9" font-weight="600" fill="#7AA116">→ HTTPS :443</text>
  <text x="663" y="361" text-anchor="middle" font-family="'Amazon Ember','Segoe UI',Arial,sans-serif" font-size="9" font-weight="400" fill="#545B64">→ HTTP :80 redirect</text>
  <text x="663" y="375" text-anchor="middle" font-family="'Amazon Ember','Segoe UI',Arial,sans-serif" font-size="9" font-weight="600" fill="#DD344C">→ Default: block</text>
  <rect x="58" y="534" width="814" height="330" rx="6" fill="#E8F4FD" stroke="#147EBA" stroke-width="1.5"/>
  <rect x="64" y="539" width="348" height="18" rx="3" fill="#147EBA" opacity="0.15"/><text x="70" y="552" font-family="'Amazon Ember','Segoe UI',Arial,sans-serif" font-size="10" font-weight="600" fill="#147EBA">Private Subnets (10.75.101.0/24, 10.75.128.0/24)</text>
  <use href="#icon-ec2" x="88" y="574" width="42" height="42"/><text x="109" y="630" text-anchor="middle" font-family="'Amazon Ember','Segoe UI',Arial,sans-serif" font-size="11" font-weight="600" fill="#232F3E">EC2 Instance</text><text x="109" y="642" text-anchor="middle" font-family="'Amazon Ember','Segoe UI',Arial,sans-serif" font-size="9" fill="#545B64">Flask Notes App</text>
  <rect x="158" y="574" width="120" height="55" rx="6" fill="#FFFFFF" stroke="#147EBA" stroke-width="1"/>
  <text x="218" y="590" text-anchor="middle" font-family="'Amazon Ember','Segoe UI',Arial,sans-serif" font-size="10" font-weight="600" fill="#232F3E">IAM Role</text>
  <text x="218" y="604" text-anchor="middle" font-family="'Amazon Ember','Segoe UI',Arial,sans-serif" font-size="9" font-weight="400" fill="#545B64">SSM Access</text>
  <text x="218" y="616" text-anchor="middle" font-family="'Amazon Ember','Segoe UI',Arial,sans-serif" font-size="9" font-weight="400" fill="#545B64">Secrets Mgr Access</text>
  <use href="#icon-rds" x="318" y="574" width="42" height="42"/><text x="339" y="630" text-anchor="middle" font-family="'Amazon Ember','Segoe UI',Arial,sans-serif" font-size="11" font-weight="600" fill="#232F3E">Amazon RDS</text><text x="339" y="642" text-anchor="middle" font-family="'Amazon Ember','Segoe UI',Arial,sans-serif" font-size="9" fill="#545B64">MySQL Multi-AZ</text>
  <use href="#icon-secrets" x="458" y="574" width="42" height="42"/><text x="479" y="630" text-anchor="middle" font-family="'Amazon Ember','Segoe UI',Arial,sans-serif" font-size="11" font-weight="600" fill="#232F3E">Secrets Manager</text><text x="479" y="642" text-anchor="middle" font-family="'Amazon Ember','Segoe UI',Arial,sans-serif" font-size="9" fill="#545B64">DB Credentials</text>
  <use href="#icon-lambda" x="598" y="574" width="42" height="42"/><text x="619" y="630" text-anchor="middle" font-family="'Amazon Ember','Segoe UI',Arial,sans-serif" font-size="11" font-weight="600" fill="#232F3E">Lambda</text><text x="619" y="642" text-anchor="middle" font-family="'Amazon Ember','Segoe UI',Arial,sans-serif" font-size="9" fill="#545B64">Secret Rotation</text>
  <rect x="72" y="674" width="786" height="85" rx="6" fill="#FFFFFF" stroke="#147EBA" stroke-width="1" stroke-dasharray="4 2"/>
  <text x="465" y="690" text-anchor="middle" font-family="'Amazon Ember','Segoe UI',Arial,sans-serif" font-size="11" font-weight="600" fill="#147EBA">VPC Endpoints (Private AWS Service Access)</text>
  <rect x="88" y="702" width="37" height="20" rx="4" fill="#F3ECFF" stroke="#8C4FFF" stroke-width="0.8"/>
  <text x="96" y="716" text-anchor="start" font-family="'Amazon Ember','Segoe UI',Arial,sans-serif" font-size="9" font-weight="500" fill="#8C4FFF">SSM</text>
  <rect x="258" y="702" width="100" height="20" rx="4" fill="#F3ECFF" stroke="#8C4FFF" stroke-width="0.8"/>
  <text x="266" y="716" text-anchor="start" font-family="'Amazon Ember','Segoe UI',Arial,sans-serif" font-size="9" font-weight="500" fill="#8C4FFF">SSM Messages</text>
  <rect x="428" y="702" width="100" height="20" rx="4" fill="#F3ECFF" stroke="#8C4FFF" stroke-width="0.8"/>
  <text x="436" y="716" text-anchor="start" font-family="'Amazon Ember','Segoe UI',Arial,sans-serif" font-size="9" font-weight="500" fill="#8C4FFF">EC2 Messages</text>
  <rect x="598" y="702" width="93" height="20" rx="4" fill="#F3ECFF" stroke="#8C4FFF" stroke-width="0.8"/>
  <text x="606" y="716" text-anchor="start" font-family="'Amazon Ember','Segoe UI',Arial,sans-serif" font-size="9" font-weight="500" fill="#8C4FFF">Secrets Mgr</text>
  <rect x="88" y="726" width="37" height="20" rx="4" fill="#F3ECFF" stroke="#8C4FFF" stroke-width="0.8"/>
  <text x="96" y="740" text-anchor="start" font-family="'Amazon Ember','Segoe UI',Arial,sans-serif" font-size="9" font-weight="500" fill="#8C4FFF">KMS</text>
  <rect x="258" y="726" width="121" height="20" rx="4" fill="#F3ECFF" stroke="#8C4FFF" stroke-width="0.8"/>
  <text x="266" y="740" text-anchor="start" font-family="'Amazon Ember','Segoe UI',Arial,sans-serif" font-size="9" font-weight="500" fill="#8C4FFF">CloudWatch Logs</text>
  <rect x="428" y="726" width="114" height="20" rx="4" fill="#F3ECFF" stroke="#8C4FFF" stroke-width="0.8"/>
  <text x="436" y="740" text-anchor="start" font-family="'Amazon Ember','Segoe UI',Arial,sans-serif" font-size="9" font-weight="500" fill="#8C4FFF">CloudWatch Mon</text>
  <rect x="598" y="726" width="100" height="20" rx="4" fill="#F3ECFF" stroke="#8C4FFF" stroke-width="0.8"/>
  <text x="606" y="740" text-anchor="start" font-family="'Amazon Ember','Segoe UI',Arial,sans-serif" font-size="9" font-weight="500" fill="#8C4FFF">S3 (Gateway)</text>
  <rect x="58" y="878" width="814" height="75" rx="6" fill="#FFFFFF" stroke="#E7157B" stroke-width="1.5"/>
  <text x="465" y="893" text-anchor="middle" font-family="'Amazon Ember','Segoe UI',Arial,sans-serif" font-size="11" font-weight="700" fill="#E7157B">Monitoring &amp; Alerting</text>
  <use href="#icon-cloudwatch" x="76" y="900" width="32" height="32"/><text x="92" y="946" text-anchor="middle" font-family="'Amazon Ember','Segoe UI',Arial,sans-serif" font-size="11" font-weight="600" fill="#232F3E">CloudWatch</text>
  <use href="#icon-sns" x="196" y="900" width="32" height="32"/><text x="212" y="946" text-anchor="middle" font-family="'Amazon Ember','Segoe UI',Arial,sans-serif" font-size="11" font-weight="600" fill="#232F3E">SNS</text>
  <rect x="286" y="906" width="57.5" height="20" rx="4" fill="#FDE8EF" stroke="#E7157B" stroke-width="0.6"/>
  <text x="292" y="920" text-anchor="start" font-family="'Amazon Ember','Segoe UI',Arial,sans-serif" font-size="9" font-weight="500" fill="#E7157B">ALB 5xx</text>
  <rect x="406" y="906" width="122.5" height="20" rx="4" fill="#FDE8EF" stroke="#E7157B" stroke-width="0.6"/>
  <text x="412" y="920" text-anchor="start" font-family="'Amazon Ember','Segoe UI',Arial,sans-serif" font-size="9" font-weight="500" fill="#E7157B">Unhealthy Targets</text>
  <rect x="526" y="906" width="57.5" height="20" rx="4" fill="#FDE8EF" stroke="#E7157B" stroke-width="0.6"/>
  <text x="532" y="920" text-anchor="start" font-family="'Amazon Ember','Segoe UI',Arial,sans-serif" font-size="9" font-weight="500" fill="#E7157B">RDS CPU</text>
  <rect x="646" y="906" width="83.5" height="20" rx="4" fill="#FDE8EF" stroke="#E7157B" stroke-width="0.6"/>
  <text x="652" y="920" text-anchor="start" font-family="'Amazon Ember','Segoe UI',Arial,sans-serif" font-size="9" font-weight="500" fill="#E7157B">RDS Storage</text>
  <rect x="766" y="906" width="96.5" height="20" rx="4" fill="#FDE8EF" stroke="#E7157B" stroke-width="0.6"/>
  <text x="772" y="920" text-anchor="start" font-family="'Amazon Ember','Segoe UI',Arial,sans-serif" font-size="9" font-weight="500" fill="#E7157B">DB Connection</text>
  <use href="#icon-tgw" x="444" y="1165" width="42" height="42"/><text x="465" y="1221" text-anchor="middle" font-family="'Amazon Ember','Segoe UI',Arial,sans-serif" font-size="11" font-weight="600" fill="#232F3E">Transit Gateway</text><text x="465" y="1233" text-anchor="middle" font-family="'Amazon Ember','Segoe UI',Arial,sans-serif" font-size="9" fill="#545B64">"Shinjuku"</text>
  <rect x="1020" y="210" width="870" height="1010" rx="10" fill="#E6F7F7" stroke="#00A4A6" stroke-width="2.5"/>
  <rect x="1028" y="216" width="179.79999999999998" height="23" rx="3" fill="#00A4A6"/><text x="1036" y="232" font-family="'Amazon Ember','Segoe UI',Arial,sans-serif" font-size="13" font-weight="700" fill="#FFFFFF">São Paulo (sa-east-1)</text>
  <rect x="1036" y="248" width="838" height="910" rx="8" fill="#F3ECFF" stroke="#8C4FFF" stroke-width="2"/>
  <rect x="1042" y="253" width="128.2" height="21" rx="3" fill="#8C4FFF"/><text x="1050" y="267" font-family="'Amazon Ember','Segoe UI',Arial,sans-serif" font-size="11" font-weight="700" fill="#FFFFFF">VPC: 10.76.0.0/16</text>
  <rect x="1048" y="280" width="814" height="240" rx="6" fill="#F2F8E1" stroke="#7AA116" stroke-width="1.5"/>
  <rect x="1054" y="285" width="320" height="18" rx="3" fill="#7AA116" opacity="0.15"/><text x="1060" y="298" font-family="'Amazon Ember','Segoe UI',Arial,sans-serif" font-size="10" font-weight="600" fill="#7AA116">Public Subnets (10.76.1.0/24, 10.76.11.0/24)</text>
  <use href="#icon-igw" x="1068" y="315" width="42" height="42"/><text x="1089" y="371" text-anchor="middle" font-family="'Amazon Ember','Segoe UI',Arial,sans-serif" font-size="11" font-weight="600" fill="#232F3E">Internet</text><text x="1089" y="383" text-anchor="middle" font-family="'Amazon Ember','Segoe UI',Arial,sans-serif" font-size="9" fill="#545B64">Gateway</text>
  <use href="#icon-nat" x="1168" y="315" width="42" height="42"/><text x="1189" y="371" text-anchor="middle" font-family="'Amazon Ember','Segoe UI',Arial,sans-serif" font-size="11" font-weight="600" fill="#232F3E">NAT</text><text x="1189" y="383" text-anchor="middle" font-family="'Amazon Ember','Segoe UI',Arial,sans-serif" font-size="9" fill="#545B64">Gateway</text>
  <use href="#icon-alb" x="1308" y="315" width="42" height="42"/><text x="1329" y="371" text-anchor="middle" font-family="'Amazon Ember','Segoe UI',Arial,sans-serif" font-size="11" font-weight="600" fill="#232F3E">ALB</text><text x="1329" y="383" text-anchor="middle" font-family="'Amazon Ember','Segoe UI',Arial,sans-serif" font-size="9" fill="#545B64">liberdade_alb01</text>
  <use href="#icon-waf" x="1438" y="315" width="42" height="42"/><text x="1459" y="371" text-anchor="middle" font-family="'Amazon Ember','Segoe UI',Arial,sans-serif" font-size="11" font-weight="600" fill="#232F3E">WAF</text><text x="1459" y="383" text-anchor="middle" font-family="'Amazon Ember','Segoe UI',Arial,sans-serif" font-size="9" fill="#545B64">Regional</text>
  <rect x="1268" y="405" width="260" height="55" rx="6" fill="#FFFFFF" stroke="#7AA116" stroke-width="1" stroke-dasharray="4 2"/>
  <text x="1398" y="421" text-anchor="middle" font-family="'Amazon Ember','Segoe UI',Arial,sans-serif" font-size="10" font-weight="600" fill="#232F3E">ALB Listener Rules</text>
  <text x="1398" y="435" text-anchor="middle" font-family="'Amazon Ember','Segoe UI',Arial,sans-serif" font-size="9" font-weight="400" fill="#545B64">Origin header validation</text>
  <text x="1398" y="447" text-anchor="middle" font-family="'Amazon Ember','Segoe UI',Arial,sans-serif" font-size="9" font-weight="400" fill="#545B64">Shared secret from Tokyo state</text>
  <rect x="1588" y="315" width="130" height="70" rx="6" fill="#FFFFFF" stroke="#7AA116" stroke-width="1"/>
  <text x="1653" y="331" text-anchor="middle" font-family="'Amazon Ember','Segoe UI',Arial,sans-serif" font-size="10" font-weight="600" fill="#232F3E">Listeners</text>
  <text x="1653" y="347" text-anchor="middle" font-family="'Amazon Ember','Segoe UI',Arial,sans-serif" font-size="9" font-weight="600" fill="#7AA116">→ HTTPS :443</text>
  <text x="1653" y="361" text-anchor="middle" font-family="'Amazon Ember','Segoe UI',Arial,sans-serif" font-size="9" font-weight="400" fill="#545B64">→ HTTP :80 redirect</text>
  <text x="1653" y="375" text-anchor="middle" font-family="'Amazon Ember','Segoe UI',Arial,sans-serif" font-size="9" font-weight="600" fill="#DD344C">→ Default: block</text>
  <rect x="1048" y="534" width="814" height="260" rx="6" fill="#E8F4FD" stroke="#147EBA" stroke-width="1.5"/>
  <rect x="1054" y="539" width="348" height="18" rx="3" fill="#147EBA" opacity="0.15"/><text x="1060" y="552" font-family="'Amazon Ember','Segoe UI',Arial,sans-serif" font-size="10" font-weight="600" fill="#147EBA">Private Subnets (10.76.101.0/24, 10.76.128.0/24)</text>
  <use href="#icon-ec2" x="1078" y="574" width="42" height="42"/><text x="1099" y="630" text-anchor="middle" font-family="'Amazon Ember','Segoe UI',Arial,sans-serif" font-size="11" font-weight="600" fill="#232F3E">EC2 Instance</text><text x="1099" y="642" text-anchor="middle" font-family="'Amazon Ember','Segoe UI',Arial,sans-serif" font-size="9" fill="#545B64">Flask Notes App</text>
  <rect x="1148" y="574" width="120" height="55" rx="6" fill="#FFFFFF" stroke="#147EBA" stroke-width="1"/>
  <text x="1208" y="590" text-anchor="middle" font-family="'Amazon Ember','Segoe UI',Arial,sans-serif" font-size="10" font-weight="600" fill="#232F3E">IAM Role</text>
  <text x="1208" y="604" text-anchor="middle" font-family="'Amazon Ember','Segoe UI',Arial,sans-serif" font-size="9" font-weight="400" fill="#545B64">SSM Access</text>
  <text x="1208" y="616" text-anchor="middle" font-family="'Amazon Ember','Segoe UI',Arial,sans-serif" font-size="9" font-weight="400" fill="#545B64">Secrets Mgr Access</text>
  <rect x="1308" y="574" width="200" height="55" rx="6" fill="#FFF5EC" stroke="#ED7100" stroke-width="1.5"/>
  <text x="1408" y="592" text-anchor="middle" font-family="'Amazon Ember','Segoe UI',Arial,sans-serif" font-size="11" font-weight="700" fill="#ED7100">No Local Database</text>
  <text x="1408" y="608" text-anchor="middle" font-family="'Amazon Ember','Segoe UI',Arial,sans-serif" font-size="9" font-weight="400" fill="#545B64">Connects to Tokyo RDS</text>
  <text x="1408" y="622" text-anchor="middle" font-family="'Amazon Ember','Segoe UI',Arial,sans-serif" font-size="9" font-weight="400" fill="#545B64">via Transit Gateway Peering</text>
  <rect x="1062" y="654" width="786" height="60" rx="6" fill="#FFFFFF" stroke="#147EBA" stroke-width="1" stroke-dasharray="4 2"/>
  <text x="1455" y="670" text-anchor="middle" font-family="'Amazon Ember','Segoe UI',Arial,sans-serif" font-size="11" font-weight="600" fill="#147EBA">VPC Endpoints</text>
  <rect x="1078" y="682" width="33" height="20" rx="4" fill="#F3ECFF" stroke="#8C4FFF" stroke-width="0.8"/>
  <text x="1086" y="696" text-anchor="start" font-family="'Amazon Ember','Segoe UI',Arial,sans-serif" font-size="9" font-weight="500" fill="#8C4FFF">SSM</text>
  <rect x="1198" y="682" width="96" height="20" rx="4" fill="#F3ECFF" stroke="#8C4FFF" stroke-width="0.8"/>
  <text x="1206" y="696" text-anchor="start" font-family="'Amazon Ember','Segoe UI',Arial,sans-serif" font-size="9" font-weight="500" fill="#8C4FFF">SSM Messages</text>
  <rect x="1318" y="682" width="96" height="20" rx="4" fill="#F3ECFF" stroke="#8C4FFF" stroke-width="0.8"/>
  <text x="1326" y="696" text-anchor="start" font-family="'Amazon Ember','Segoe UI',Arial,sans-serif" font-size="9" font-weight="500" fill="#8C4FFF">EC2 Messages</text>
  <rect x="1438" y="682" width="61" height="20" rx="4" fill="#F3ECFF" stroke="#8C4FFF" stroke-width="0.8"/>
  <text x="1446" y="696" text-anchor="start" font-family="'Amazon Ember','Segoe UI',Arial,sans-serif" font-size="9" font-weight="500" fill="#8C4FFF">CW Logs</text>
  <rect x="1558" y="682" width="103" height="20" rx="4" fill="#F3ECFF" stroke="#8C4FFF" stroke-width="0.8"/>
  <text x="1566" y="696" text-anchor="start" font-family="'Amazon Ember','Segoe UI',Arial,sans-serif" font-size="9" font-weight="500" fill="#8C4FFF">CW Monitoring</text>
  <rect x="1678" y="682" width="96" height="20" rx="4" fill="#F3ECFF" stroke="#8C4FFF" stroke-width="0.8"/>
  <text x="1686" y="696" text-anchor="start" font-family="'Amazon Ember','Segoe UI',Arial,sans-serif" font-size="9" font-weight="500" fill="#8C4FFF">S3 (Gateway)</text>
  <rect x="1048" y="808" width="814" height="75" rx="6" fill="#FFFFFF" stroke="#E7157B" stroke-width="1.5"/>
  <text x="1455" y="823" text-anchor="middle" font-family="'Amazon Ember','Segoe UI',Arial,sans-serif" font-size="11" font-weight="700" fill="#E7157B">Monitoring &amp; Alerting</text>
  <use href="#icon-cloudwatch" x="1066" y="830" width="32" height="32"/><text x="1082" y="876" text-anchor="middle" font-family="'Amazon Ember','Segoe UI',Arial,sans-serif" font-size="11" font-weight="600" fill="#232F3E">CloudWatch</text>
  <use href="#icon-sns" x="1186" y="830" width="32" height="32"/><text x="1202" y="876" text-anchor="middle" font-family="'Amazon Ember','Segoe UI',Arial,sans-serif" font-size="11" font-weight="600" fill="#232F3E">SNS</text>
  <rect x="1276" y="836" width="57.5" height="20" rx="4" fill="#FDE8EF" stroke="#E7157B" stroke-width="0.6"/>
  <text x="1282" y="850" text-anchor="start" font-family="'Amazon Ember','Segoe UI',Arial,sans-serif" font-size="9" font-weight="500" fill="#E7157B">ALB 5xx</text>
  <rect x="1396" y="836" width="122.5" height="20" rx="4" fill="#FDE8EF" stroke="#E7157B" stroke-width="0.6"/>
  <text x="1402" y="850" text-anchor="start" font-family="'Amazon Ember','Segoe UI',Arial,sans-serif" font-size="9" font-weight="500" fill="#E7157B">Unhealthy Targets</text>
  <rect x="1516" y="836" width="96.5" height="20" rx="4" fill="#FDE8EF" stroke="#E7157B" stroke-width="0.6"/>
  <text x="1522" y="850" text-anchor="start" font-family="'Amazon Ember','Segoe UI',Arial,sans-serif" font-size="9" font-weight="500" fill="#E7157B">DB Connection</text>
  <use href="#icon-s3" x="1804" y="830" width="32" height="32"/><text x="1820" y="876" text-anchor="middle" font-family="'Amazon Ember','Segoe UI',Arial,sans-serif" font-size="11" font-weight="600" fill="#232F3E">S3</text><text x="1820" y="888" text-anchor="middle" font-family="'Amazon Ember','Segoe UI',Arial,sans-serif" font-size="9" fill="#545B64">ALB Logs</text>
  <use href="#icon-tgw" x="1434" y="1165" width="42" height="42"/><text x="1455" y="1221" text-anchor="middle" font-family="'Amazon Ember','Segoe UI',Arial,sans-serif" font-size="11" font-weight="600" fill="#232F3E">Transit Gateway</text><text x="1455" y="1233" text-anchor="middle" font-family="'Amazon Ember','Segoe UI',Arial,sans-serif" font-size="9" fill="#545B64">"Liberdade"</text>
  <path d="M 901 205 L 901 205 L 339 205 L 339 275" fill="none" stroke="#8C4FFF" stroke-width="2.5" marker-end="url(#arr-8C4FFF)"/>
  <circle cx="901" cy="222" r="14" fill="#FF9900" stroke="#232F3E" stroke-width="1.5"/><text x="901" y="227" text-anchor="middle" font-family="'Amazon Ember','Segoe UI',Arial,sans-serif" font-size="13" font-weight="700" fill="#FFFFFF">3</text>
  <text x="851" y="200" text-anchor="start" font-family="'Amazon Ember','Segoe UI',Arial,sans-serif" font-size="10" font-weight="600" fill="#8C4FFF">Primary Origin</text>
  <path d="M 1021 205 L 1021 205 L 1329 205 L 1329 275" fill="none" stroke="#DD344C" stroke-width="2" marker-end="url(#arr-DD344C)" stroke-dasharray="8 4"/>
  <circle cx="1021" cy="222" r="14" fill="#FF9900" stroke="#232F3E" stroke-width="1.5"/><text x="1021" y="227" text-anchor="middle" font-family="'Amazon Ember','Segoe UI',Arial,sans-serif" font-size="13" font-weight="700" fill="#FFFFFF">4</text>
  <text x="1026" y="200" text-anchor="start" font-family="'Amazon Ember','Segoe UI',Arial,sans-serif" font-size="10" font-weight="600" fill="#DD344C">Failover Origin</text>
  <line x1="339" y1="385" x2="109" y2="569" stroke="#545B64" stroke-width="2" marker-end="url(#arr-545B64)"/>
  <circle cx="309" cy="479.5" r="14" fill="#FF9900" stroke="#232F3E" stroke-width="1.5"/><text x="309" y="484.5" text-anchor="middle" font-family="'Amazon Ember','Segoe UI',Arial,sans-serif" font-size="13" font-weight="700" fill="#FFFFFF">5</text>
  <line x1="130" y1="595" x2="313" y2="595" stroke="#545B64" stroke-width="2" marker-end="url(#arr-545B64)"/>
  <circle cx="224" cy="575" r="14" fill="#FF9900" stroke="#232F3E" stroke-width="1.5"/><text x="224" y="580" text-anchor="middle" font-family="'Amazon Ember','Segoe UI',Arial,sans-serif" font-size="13" font-weight="700" fill="#FFFFFF">6</text>
  <line x1="1329" y1="385" x2="1099" y2="569" stroke="#545B64" stroke-width="2" marker-end="url(#arr-545B64)"/>
  <line x1="491" y1="1186" x2="1429" y2="1186" stroke="#ED7100" stroke-width="3" stroke-dasharray="10 5"/>
  <polygon points="491,1186 504,1180 504,1192" fill="#ED7100"/>
  <polygon points="1429,1186 1416,1180 1416,1192" fill="#ED7100"/>
  <circle cx="960" cy="1166" r="14" fill="#FF9900" stroke="#232F3E" stroke-width="1.5"/><text x="960" y="1171" text-anchor="middle" font-family="'Amazon Ember','Segoe UI',Arial,sans-serif" font-size="13" font-weight="700" fill="#FFFFFF">7</text>
  <text x="960" y="1204" text-anchor="middle" font-family="'Amazon Ember','Segoe UI',Arial,sans-serif" font-size="11" font-weight="700" fill="#ED7100">TGW Peering: Cross-Region</text>
  <path d="M 1099 618 L 1099 1186 L 1434 1186" fill="none" stroke="#ED7100" stroke-width="1.5" marker-end="url(#arr-ED7100)" stroke-dasharray="8 4"/>
  <path d="M 486 1186 L 339 1186 L 339 618" fill="none" stroke="#ED7100" stroke-width="1.5" marker-end="url(#arr-ED7100)" stroke-dasharray="8 4"/>
  <circle cx="364" cy="890.5" r="14" fill="#FF9900" stroke="#232F3E" stroke-width="1.5"/><text x="364" y="895.5" text-anchor="middle" font-family="'Amazon Ember','Segoe UI',Arial,sans-serif" font-size="13" font-weight="700" fill="#FFFFFF">8</text>
  <text x="384" y="895.5" text-anchor="start" font-family="'Amazon Ember','Segoe UI',Arial,sans-serif" font-size="9" font-weight="600" fill="#ED7100">SP → Tokyo RDS</text>
  <rect x="905" y="1080" width="110" height="80" rx="6" fill="#FFF5EC" stroke="#ED7100" stroke-width="1"/>
  <text x="960" y="1096" text-anchor="middle" font-family="'Amazon Ember','Segoe UI',Arial,sans-serif" font-size="10" font-weight="700" fill="#ED7100">Remote State</text>
  <text x="960" y="1112" text-anchor="middle" font-family="'Amazon Ember','Segoe UI',Arial,sans-serif" font-size="10" font-weight="700" fill="#ED7100">References</text>
  <text x="960" y="1126" text-anchor="middle" font-family="'Amazon Ember','Segoe UI',Arial,sans-serif" font-size="8" font-weight="400" fill="#545B64">tgw_id</text>
  <text x="960" y="1138" text-anchor="middle" font-family="'Amazon Ember','Segoe UI',Arial,sans-serif" font-size="8" font-weight="400" fill="#545B64">vpc_cidr</text>
  <text x="960" y="1150" text-anchor="middle" font-family="'Amazon Ember','Segoe UI',Arial,sans-serif" font-size="8" font-weight="400" fill="#545B64">origin_secret</text>
  <text x="960" y="1162" text-anchor="middle" font-family="'Amazon Ember','Segoe UI',Arial,sans-serif" font-size="8" font-weight="400" fill="#545B64">alb_dns</text>
  <text x="960" y="1174" text-anchor="middle" font-family="'Amazon Ember','Segoe UI',Arial,sans-serif" font-size="8" font-weight="400" fill="#545B64">peering_id</text>
  <rect x="30" y="1220" width="1860" height="50" rx="6" fill="#FFFFFF" stroke="#232F3E" stroke-width="1"/>
  <text x="42" y="1238" text-anchor="start" font-family="'Amazon Ember','Segoe UI',Arial,sans-serif" font-size="11" font-weight="700" fill="#232F3E">Legend:</text>
  <line x1="100" y1="1234" x2="140" y2="1234" stroke="#8C4FFF" stroke-width="2.5"/>
  <text x="145" y="1238" text-anchor="start" font-family="'Amazon Ember','Segoe UI',Arial,sans-serif" font-size="10" font-weight="600" fill="#8C4FFF">Primary Origin</text>
  <line x1="250" y1="1234" x2="290" y2="1234" stroke="#DD344C" stroke-width="2" stroke-dasharray="8 4"/>
  <text x="295" y="1238" text-anchor="start" font-family="'Amazon Ember','Segoe UI',Arial,sans-serif" font-size="10" font-weight="600" fill="#DD344C">Failover Origin</text>
  <line x1="410" y1="1234" x2="450" y2="1234" stroke="#ED7100" stroke-width="2.5" stroke-dasharray="10 5"/>
  <text x="455" y="1238" text-anchor="start" font-family="'Amazon Ember','Segoe UI',Arial,sans-serif" font-size="10" font-weight="600" fill="#ED7100">TGW Peering / Cross-Region</text>
  <line x1="640" y1="1234" x2="680" y2="1234" stroke="#545B64" stroke-width="2"/>
  <text x="685" y="1238" text-anchor="start" font-family="'Amazon Ember','Segoe UI',Arial,sans-serif" font-size="10" font-weight="600" fill="#545B64">Data Flow</text>
  <circle cx="800" cy="1234" r="14" fill="#FF9900" stroke="#232F3E" stroke-width="1.5"/><text x="800" y="1239" text-anchor="middle" font-family="'Amazon Ember','Segoe UI',Arial,sans-serif" font-size="13" font-weight="700" fill="#FFFFFF">N</text>
  <text x="820" y="1238" text-anchor="start" font-family="'Amazon Ember','Segoe UI',Arial,sans-serif" font-size="10" font-weight="600" fill="#232F3E">Traffic Flow Step</text>
  <text x="42" y="1260" text-anchor="start" font-family="'Amazon Ember','Segoe UI',Arial,sans-serif" font-size="10" font-weight="700" fill="#232F3E">APPI Compliance:</text>
  <text x="140" y="1260" text-anchor="start" font-family="'Amazon Ember','Segoe UI',Arial,sans-serif" font-size="9" font-weight="400" fill="#545B64">Database resides exclusively in Tokyo (Japan) • São Paulo EC2 accesses Tokyo RDS via Transit Gateway peering • No data replication outside Japan</text>
  <text x="960" y="1275" text-anchor="middle" font-family="'Amazon Ember','Segoe UI',Arial,sans-serif" font-size="10" font-weight="600" fill="#545B64">Lab 3: Multi-Region Infrastructure — Vandelay Industries — APPI-Compliant Architecture</text>
</svg>